<svg xmlns="http://www.w3.org/2000/svg" width="14" height="9" fill="none" viewBox="0 0 14 9"><path fill="#03A06C" d="M.992.808s2.087.18.948.359c-1.138.18 1.376 1.617 1.376 1.617s1.756-.27.76.18c-.997.45.9 1.932.9 1.932s1.471-.54.38.18c-1.091.719 2.277 1.213 2.277 1.213s1.092-.63.475.045C7.49 7.008 10.1 7.547 10.1 7.547s.807-1.213.57-.18c-.238 1.034 2.04 1.213 2.04 1.213s.616-.764.427-.045c-.19.72.474-.763.474-.763l-.57-.585-1.185-1.707-.285-.584-.38-.854-.237-.853-.142-.63-1.898.09-.332.36-.332.315s-.285.943-.332-.135c0-1.123.142-1.393.142-1.393l.712-.54s-1.091.18-1.281.18c-.19 0-2.657-.224-2.657-.224l.143-.225.237-.36L1.656.404.992.808z"/></svg>